<?xml version="1.0" encoding="UTF-8" standalone="no"?> <svg xmlns="http://www.w3.org/2000/svg" viewBox="0 0 42.68 47.87"><defs><style>.cls-1{fill:none;stroke:#e6b800;stroke-linecap:round;stroke-linejoin:round;stroke-width:2px;}</style></defs><title>Asset 25</title><g id="Layer_2" data-name="Layer 2"><g id="Layer_2-2" data-name="Layer 2"><path class="cls-1" d="M24.74,29.39V44.87a2,2,0,0,1-2,2H3a2,2,0,0,1-2-2V3A2,2,0,0,1,3,1H22.74a2,2,0,0,1,2,2"/><line class="cls-1" x1="1.7" y1="8.62" x2="12.7" y2="8.62"/><line class="cls-1" x1="1.7" y1="38.62" x2="23.7" y2="38.62"/><line class="cls-1" x1="9.7" y1="4.62" x2="14.7" y2="4.62"/><circle class="cls-1" cx="12.87" cy="42.94" r="1.08"/><path class="cls-1" d="M25.94,3.7C17.28,3.7,10.7,9.47,10.7,16.58a9.54,9.54,0,0,0,4,8.19h0a11.59,11.59,0,0,1-.29,6,1,1,0,0,0,1.3,1.24l7.89-2.79a17.56,17.56,0,0,0,2.42.18c8.67,0,15.63-5.76,15.63-12.87S34.61,3.7,25.94,3.7Z"/><path class="cls-1" d="M23.47,29.27a17.79,17.79,0,0,1-5.06-1.83"/><circle cx="19.52" cy="17.02" r="1.76" fill="white"/><circle cx="26.43" cy="17.02" r="1.76" fill="white"/><circle cx="33.35" cy="17.02" r="1.76" fill="white"/></g></g></svg>