<?xml version="1.0" encoding="utf-8"?>
<!-- Generator: Adobe Illustrator 22.0.0, SVG Export Plug-In . SVG Version: 6.00 Build 0)  -->
<svg version="1.1" xmlns="http://www.w3.org/2000/svg" xmlns:xlink="http://www.w3.org/1999/xlink" x="0px" y="0px"
	 viewBox="0 0 32 32" style="enable-background:new 0 0 32 32;" xml:space="preserve">
<style type="text/css">
	.st0{display:none;}
	.st1{display:inline;}
</style>
<g id="Grid" class="st0">
</g>
<g id="chat">
</g>
<g id="_x32_4_hours">
</g>
<g id="phone_book">
</g>
<g id="mail">
</g>
<g id="email_1_">
</g>
<g id="customer_support">
</g>
<g id="clock">
</g>
<g id="info">
</g>
<g id="notification">
</g>
<g id="_x32_4_hours_service">
</g>
<g id="letter">
</g>
<g id="outgoing_call">
</g>
<g id="incoming_call">
</g>
<g id="id_card">
</g>
<g id="calendar">
</g>
<g id="web">
</g>
<g id="block">
</g>
<g id="conversation">
</g>
<g id="pin">
</g>
<g id="call">
</g>
<g id="faq">
	<path fill="#e6b800" d="M26,2.52H6c-2.21,0-4,1.79-4,4v15.23c0,2.21,1.79,4,4,4h3v3.37c0,0.2,0.17,0.37,0.37,0.36c2.42-0.14,4.47-1.63,5.43-3.73
		H26c2.21,0,4-1.79,4-4V6.52C30,4.31,28.21,2.52,26,2.52z M16.64,20.069c-0.09,0.091-0.19,0.15-0.3,0.2
		c-0.11,0.04-0.22,0.07-0.34,0.07c-0.24,0-0.47-0.1-0.64-0.271c-0.16-0.159-0.26-0.399-0.26-0.63c0-0.239,0.1-0.47,0.26-0.64
		c0.25-0.25,0.65-0.33,0.98-0.19c0.11,0.04,0.21,0.11,0.3,0.19c0.16,0.17,0.26,0.4,0.26,0.64C16.9,19.67,16.8,19.91,16.64,20.069z
		 M17.742,15.195c-0.519,0.265-0.842,0.762-0.842,1.297c0,0.497-0.403,0.9-0.9,0.9s-0.9-0.403-0.9-0.9
		c0-1.216,0.699-2.327,1.824-2.9c0.706-0.359,1.307-1.212,1.06-2.307c-0.169-0.748-0.764-1.337-1.515-1.5
		c-1.086-0.237-1.937,0.366-2.292,1.07c-0.144,0.285-0.217,0.594-0.217,0.917c0,0.497-0.403,0.9-0.9,0.9s-0.9-0.403-0.9-0.9
		c0-0.599,0.142-1.196,0.41-1.728c0.79-1.566,2.55-2.401,4.281-2.019c1.432,0.311,2.565,1.435,2.888,2.862
		C20.132,12.624,19.311,14.396,17.742,15.195z"/>
</g>
<g id="microphone">
</g>
<g id="feedback">
</g>
<g id="sticky_notes">
</g>
<g id="agenda">
</g>
</svg>
