<?xml version="1.0" encoding="UTF-8" standalone="no"?> <svg width="64" height="64" viewBox="0 0 64 64" fill="none" xmlns="http://www.w3.org/2000/svg">
<path d="M56 9.73H53.26C51.2386 9.73697 49.2609 9.14138 47.5795 8.01925C45.8981 6.89713 44.5892 5.29939 43.82 3.43C43.7057 3.15528 43.5128 2.92045 43.2655 2.75499C43.0182 2.58953 42.7275 2.50082 42.43 2.5H21.29C20.9925 2.50082 20.7018 2.58953 20.4545 2.75499C20.2072 2.92045 20.0143 3.15528 19.9 3.43C19.1297 5.2986 17.8205 6.89559 16.1394 8.01755C14.4582 9.13951 12.4811 9.73564 10.46 9.73H8C6.54212 9.73264 5.14471 10.313 4.11383 11.3438C3.08295 12.3747 2.50264 13.7721 2.5 15.23V56C2.50264 57.4579 3.08295 58.8553 4.11383 59.8862C5.14471 60.917 6.54212 61.4974 8 61.5H56C57.4579 61.4974 58.8553 60.917 59.8862 59.8862C60.917 58.8553 61.4974 57.4579 61.5 56V15.23C61.4974 13.7721 60.917 12.3747 59.8862 11.3438C58.8553 10.313 57.4579 9.73264 56 9.73V9.73ZM58.5 56C58.5 56.663 58.2366 57.2989 57.7678 57.7678C57.2989 58.2366 56.663 58.5 56 58.5H8C7.33696 58.5 6.70107 58.2366 6.23223 57.7678C5.76339 57.2989 5.5 56.663 5.5 56V15.23C5.5 14.567 5.76339 13.9311 6.23223 13.4622C6.70107 12.9934 7.33696 12.73 8 12.73H10.46C12.9019 12.7343 15.297 12.0607 17.3786 10.7842C19.4602 9.50767 21.1466 7.67836 22.25 5.5H41.47C42.5734 7.67836 44.2598 9.50767 46.3414 10.7842C48.423 12.0607 50.8181 12.7343 53.26 12.73H56C56.663 12.73 57.2989 12.9934 57.7678 13.4622C58.2366 13.9311 58.5 14.567 58.5 15.23V56Z" fill="#e6b800"/>
<path d="M32 15C28.3096 14.998 24.7017 16.0909 21.6327 18.1403C18.5638 20.1897 16.1718 23.1036 14.7596 26.513C13.3474 29.9224 12.9784 33.6741 13.6993 37.2934C14.4202 40.9126 16.1987 44.2366 18.8095 46.8446C21.4204 49.4527 24.7463 51.2275 28.3663 51.9446C31.9863 52.6616 35.7376 52.2886 39.1455 50.8727C42.5534 49.4568 45.4646 47.0617 47.5108 43.9906C49.5569 40.9194 50.6459 37.3103 50.6399 33.62C50.6267 28.6823 48.658 23.9509 45.1646 20.4612C41.6712 16.9716 36.9377 15.0079 32 15V15ZM32 49.29C28.9051 49.292 25.8791 48.3763 23.3046 46.6587C20.7301 44.9412 18.7227 42.4989 17.536 39.6405C16.3494 36.7822 16.0369 33.6362 16.638 30.6003C17.2391 27.5644 18.7269 24.7749 20.9131 22.5844C23.0994 20.3939 25.8861 18.9008 28.9209 18.2939C31.9556 17.687 35.1022 17.9935 37.9628 19.1746C40.8234 20.3558 43.2695 22.3585 44.992 24.9297C46.7145 27.501 47.636 30.5252 47.6399 33.62C47.6347 37.7664 45.9852 41.7414 43.0533 44.6733C40.1213 47.6052 36.1463 49.2547 32 49.26V49.29Z" fill="#e6b800"/>
<path d="M32 21C31.6022 21 31.2206 21.158 30.9393 21.4393C30.658 21.7206 30.5 22.1022 30.5 22.5C30.5 22.8978 30.658 23.2794 30.9393 23.5607C31.2206 23.842 31.6022 24 32 24C34.5576 24.0027 37.0096 25.0205 38.8171 26.83C40.6247 28.6394 41.64 31.0924 41.64 33.65C41.64 34.0478 41.798 34.4294 42.0793 34.7107C42.3606 34.992 42.7422 35.15 43.14 35.15C43.5378 35.15 43.9194 34.992 44.2007 34.7107C44.482 34.4294 44.64 34.0478 44.64 33.65C44.6374 30.2976 43.3051 27.083 40.9355 24.7116C38.5659 22.3401 35.3524 21.0053 32 21V21Z" fill="white"/>
</svg>
