<?xml version="1.0" encoding="UTF-8" standalone="no"?> <svg width="64" height="64" viewBox="0 0 64 64" fill="none" xmlns="http://www.w3.org/2000/svg">
<path d="M61 48.94C60.9907 48.848 60.9705 48.7573 60.94 48.67C60.9441 48.6334 60.9441 48.5966 60.94 48.56C60.8991 48.4895 60.8523 48.4226 60.8 48.36C60.7822 48.329 60.7584 48.3018 60.73 48.28V48.28L42.14 32.28V7C42.14 6.73478 42.0346 6.48043 41.8471 6.29289C41.6596 6.10536 41.4052 6 41.14 6H22.94C22.6748 6 22.4204 6.10536 22.2329 6.29289C22.0454 6.48043 21.94 6.73478 21.94 7V32.2L3.35 48.2C3.32422 48.2207 3.30075 48.2442 3.28 48.27L3.14 48.48C3.13587 48.5165 3.13587 48.5534 3.14 48.59C3.10949 48.6773 3.08935 48.768 3.08 48.86C3.08 48.86 3 49 3 49V57C3 57.2652 3.10536 57.5196 3.29289 57.7071C3.48043 57.8946 3.73478 58 4 58H60C60.2652 58 60.5196 57.8946 60.7071 57.7071C60.8946 57.5196 61 57.2652 61 57V49C61 49 61 49 61 48.94ZM23.94 8H40.06V31.66H23.94V8ZM23.31 33.66H40.69L57.31 48H6.69L23.31 33.66ZM59 56H5V50H59V56Z" fill="black"/>
<path d="M52 54H55.42C55.6852 54 55.9396 53.8946 56.1271 53.7071C56.3146 53.5196 56.42 53.2652 56.42 53C56.42 52.7348 56.3146 52.4804 56.1271 52.2929C55.9396 52.1054 55.6852 52 55.42 52H52C51.7348 52 51.4804 52.1054 51.2929 52.2929C51.1054 52.4804 51 52.7348 51 53C51 53.2652 51.1054 53.5196 51.2929 53.7071C51.4804 53.8946 51.7348 54 52 54Z" fill="black"/>
<path d="M43.3201 54H46.7401C47.0053 54 47.2596 53.8946 47.4472 53.7071C47.6347 53.5196 47.7401 53.2652 47.7401 53C47.7401 52.7348 47.6347 52.4804 47.4472 52.2929C47.2596 52.1054 47.0053 52 46.7401 52H43.3201C43.0549 52 42.8005 52.1054 42.613 52.2929C42.4254 52.4804 42.3201 52.7348 42.3201 53C42.3201 53.2652 42.4254 53.5196 42.613 53.7071C42.8005 53.8946 43.0549 54 43.3201 54Z" fill="black"/>
<path d="M34.6299 54H38.0599C38.3251 54 38.5795 53.8946 38.767 53.7071C38.9545 53.5196 39.0599 53.2652 39.0599 53C39.0599 52.7348 38.9545 52.4804 38.767 52.2929C38.5795 52.1054 38.3251 52 38.0599 52H34.6299C34.3647 52 34.1103 52.1054 33.9228 52.2929C33.7352 52.4804 33.6299 52.7348 33.6299 53C33.6299 53.2652 33.7352 53.5196 33.9228 53.7071C34.1103 53.8946 34.3647 54 34.6299 54Z" fill="black"/>
</svg>
