<?xml version="1.0" encoding="UTF-8" standalone="no"?> <svg xmlns="http://www.w3.org/2000/svg" width="1706.67" height="965.603" viewBox="0 0 1706.67 965.603">
  <g id="Layer_x0020_1" transform="translate(-313.32 -683.81)">
    <path id="Path_230" data-name="Path 230" d="M1890.33,1203.7a22.028,22.028,0,0,0,21.96,21.96h32.42a22,22,0,0,0,21.96-21.96V766.05a29.026,29.026,0,0,0-28.9-28.91H395.58a28.974,28.974,0,0,0-28.9,28.91V1203.7a22,22,0,0,0,21.96,21.96h32.42a22.048,22.048,0,0,0,21.96-21.96V984.88c0-54.76,44.9-99.61,99.61-99.61H1790.74c54.76,0,99.61,44.9,99.61,99.61V1203.7Zm-53.34,0V984.88a46.372,46.372,0,0,0-46.27-46.27H542.61a46.372,46.372,0,0,0-46.27,46.27V1203.7a75.541,75.541,0,0,1-75.3,75.3H388.62a75.593,75.593,0,0,1-75.3-75.3V766.05c0-45.15,37.04-82.24,82.24-82.24H1937.75a82.517,82.517,0,0,1,82.24,82.24V1203.7a75.593,75.593,0,0,1-75.3,75.3h-32.42a75.5,75.5,0,0,1-75.3-75.3Z" fill="black"/>
    <path id="Path_231" data-name="Path 231" d="M791.81,1296.71a26.616,26.616,0,1,0-49.16-20.42L640.76,1521.74a26.616,26.616,0,1,0,49.16,20.42Z" fill="black"/>
    <path id="Path_232" data-name="Path 232" d="M920.42,1327.59a26.605,26.605,0,0,0-51.67-12.71l-64.83,261.66a26.605,26.605,0,0,0,51.67,12.71Z" fill="black"/>
    <path id="Path_233" data-name="Path 233" d="M1057.56,1345.41a26.565,26.565,0,0,0-52.71-6.67l-34.74,270.93a26.565,26.565,0,0,0,52.71,6.67l34.74-270.93Z" fill="black"/>
    <path id="Path_234" data-name="Path 234" d="M1192.18,1355.97a26.67,26.67,0,0,0-53.34,0v263.98a26.67,26.67,0,0,0,53.34,0Z" fill="black"/>
    <path id="Path_235" data-name="Path 235" d="M1590.69,1286.14a26.616,26.616,0,1,0-49.16,20.42l101.89,245.45a26.616,26.616,0,0,0,49.16-20.42Z" fill="black"/>
    <path id="Path_236" data-name="Path 236" d="M1464.59,1324.72a26.605,26.605,0,1,0-51.67,12.71l64.84,261.66a26.605,26.605,0,0,0,51.67-12.71Z" fill="black"/>
    <path id="Path_237" data-name="Path 237" d="M1328.48,1348.58a26.565,26.565,0,1,0-52.71,6.67l34.74,270.93a26.565,26.565,0,0,0,52.71-6.67l-34.74-270.93Z" fill="black"/>
    <path id="Path_238" data-name="Path 238" d="M469.67,1067.62a26.67,26.67,0,0,0,0,53.34H1863.65a26.67,26.67,0,1,0,0-53.34H469.67Z" fill="black"/>
  </g>
</svg>
