<?xml version="1.0" encoding="utf-8"?>
<!-- Generator: Adobe Illustrator 27.2.0, SVG Export Plug-In . SVG Version: 6.00 Build 0)  -->
<svg version="1.1" id="Layer_1" xmlns="http://www.w3.org/2000/svg" xmlns:xlink="http://www.w3.org/1999/xlink" x="0px" y="0px"
	 viewBox="0 0 251.9805 299.5763" enable-background="new 0 0 251.9805 299.5763" xml:space="preserve">
<g>
	<path d="M71.1699,102.5698v44.1821h1v-44.1821c-0.167,0.003-0.3323,0.0127-0.5,0.0127S71.3369,102.5728,71.1699,102.5698z"/>
	<path d="M36.2676,12.7646l-0.8652,0.5l22.0912,38.2629c0.2849-0.1721,0.5746-0.3366,0.866-0.4985L36.2676,12.7646z"/>
	<path d="M107.0723,137.4004l0.8652-0.5L85.8463,98.6373c-0.2849,0.1721-0.5746,0.3366-0.866,0.4985L107.0723,137.4004z"/>
	<path d="M9.8516,38.8145l-0.5,0.8662l38.2645,22.092c0.162-0.2917,0.3268-0.5817,0.499-0.8668L9.8516,38.8145z"/>
	<path d="M95.7233,88.3926c-0.162,0.2917-0.3267,0.5817-0.499,0.8668l33.2298,19.1852c0.3397-0.2038,0.6762-0.3942,1.0095-0.572
		L95.7233,88.3926z"/>
	<path d="M99.157,75.5825h38.3454c0.1323-0.3401,0.2874-0.6672,0.433-1H99.157c0.003,0.1669,0.0127,0.3322,0.0127,0.4999
		C99.1697,75.2501,99.16,75.4155,99.157,75.5825z"/>
	<path d="M44.1824,74.5825H0v1h44.1824c-0.003-0.167-0.0127-0.3324-0.0127-0.5001C44.1697,74.9147,44.1794,74.7495,44.1824,74.5825z
		"/>
	<path d="M133.9873,39.6807l-0.5-0.8662L95.2244,60.9056c0.1722,0.2851,0.3369,0.5751,0.499,0.8668L133.9873,39.6807z"/>
	<path d="M9.3516,110.4844l0.5,0.8662l38.2635-22.0915c-0.1722-0.2851-0.337-0.5751-0.499-0.8668L9.3516,110.4844z"/>
	<path d="M107.9375,13.2646l-0.8652-0.5l-22.092,38.2645c0.2914,0.1619,0.5812,0.3264,0.8661,0.4985L107.9375,13.2646z"/>
	<path d="M35.4023,136.9004l0.8652,0.5l22.092-38.2645c-0.2914-0.1619-0.5812-0.3264-0.8661-0.4985L35.4023,136.9004z"/>
	<path d="M58.0723,22.4014l-0.9668,0.2588l5.5804,20.8265c0.2332-0.3577,0.4821-0.7043,0.7609-1.0275L58.0723,22.4014z"/>
	<path d="M85.2676,127.7637l0.9668-0.2588l-6.9662-25.9985c-0.3201,0.0922-0.6411,0.1818-0.9658,0.2625L85.2676,127.7637z"/>
	<path d="M52.5955,55.301L33.5527,36.2583l-0.707,0.707L51.8885,56.008C52.1199,55.768,52.3555,55.5324,52.5955,55.301z"/>
	<path d="M90.7444,94.8637l19.0427,19.0425l0.707-0.707L91.4515,94.1567C91.22,94.3966,90.9844,94.6322,90.7444,94.8637z"/>
	<path d="M124.0918,89.6465l0.2598-0.9658l-25.9955-6.9654c-0.0807,0.3245-0.1702,0.6453-0.2623,0.9651L124.0918,89.6465z"/>
	<path d="M19.248,60.5186l-0.2598,0.9658l25.9951,6.9653c0.0807-0.3245,0.1702-0.6452,0.2623-0.9651L19.248,60.5186z"/>
	<path d="M18.9883,88.6807l0.2598,0.9658l25.9977-6.966c-0.0921-0.3198-0.1816-0.6407-0.2623-0.9651L18.9883,88.6807z"/>
	<path d="M124.3516,61.4844l-0.2598-0.9658l-25.998,6.9661c0.0921,0.3199,0.1816,0.6406,0.2623,0.9651L124.3516,61.4844z"/>
	<path d="M51.8883,94.1567l-19.0426,19.0425l0.707,0.707l19.0426-19.0425C52.3554,94.6323,52.1198,94.3967,51.8883,94.1567z"/>
	<path d="M91.4513,56.0081l19.0428-19.0427l-0.707-0.707L90.7443,55.301C90.9842,55.5325,91.2198,55.7681,91.4513,56.0081z"/>
	<path d="M86.2344,22.6602l-0.9668-0.2588l-5.3743,20.0573c0.2789,0.3231,0.5277,0.6697,0.7609,1.0274L86.2344,22.6602z"/>
	<path d="M57.1055,127.5049l0.9668,0.2588l6.9652-25.9948c-0.3248-0.0807-0.6458-0.1703-0.9658-0.2625L57.1055,127.5049z"/>
	<path d="M65.121,48.817c0,4.5172-2.8175,9.3663-5.2339,12.6986c-3.8549,3.3172-6.307,8.2227-6.307,13.709
		c0,9.9897,8.0979,18.0897,18.0886,18.0897c9.9907,0,18.0908-8.1,18.0908-18.0897c0-5.4863-2.4521-10.3918-6.3071-13.709
		c-2.4174-3.3323-5.2338-8.1814-5.2338-12.6986c0-3.342-2.3451-5.2646-5.0496-5.7792v-4.0443V0h-1.5003h-1.4997v38.9939v4.0442
		C67.4651,43.5532,65.121,45.4756,65.121,48.817z M71.6686,46.6348L71.6686,46.6348L71.6686,46.6348z M80.4224,63.7163
		l0.2559,0.3522l0.3307,0.2841c3.1817,2.7372,5.0072,6.6995,5.0072,10.8699c0,7.9136-6.435,14.3507-14.3475,14.3507
		c-7.9093,0-14.3453-6.4371-14.3453-14.3507c0-4.1703,1.8266-8.1327,5.0083-10.8699l0.3306-0.2841l0.2602-0.3565
		c1.3502-1.8662,2.4553-3.6766,3.3478-5.4345H77.066C77.9599,60.038,79.0677,61.85,80.4224,63.7163z"/>
	<path d="M79.835,75.4058c0,4.6514-3.7832,8.4355-8.4326,8.4355c-0.5527,0-1,0.4478-1,1s0.4473,1,1,1
		c5.7529,0,10.4326-4.6812,10.4326-10.4355c0-0.5522-0.4473-1-1-1S79.835,74.8535,79.835,75.4058z"/>
	<path d="M224.3555,95.7021l22.0576,4.1006c0.0605,0.0117,0.1221,0.0171,0.1826,0.0171h4.3848c0.5527,0,1-0.4478,1-1V67.3877
		c0-0.5522-0.4473-1-1-1h-4.3848c-0.0615,0-0.1221,0.0059-0.1826,0.0166l-15.3455,2.8536l-6.7122,1.2479
		c-0.4736,0.0879-0.8174,0.501-0.8174,0.9829v11.4191c0.4763-0.0209,0.9531-0.0394,1.4309-0.0394
		c0.1902,0,0.3792,0.0149,0.5691,0.0182V72.3198l20.0576-3.729v29.0259l-20.0576-3.729v-1.4024
		c-0.1836-0.0045-0.3667-0.0176-0.5505-0.0176c-0.4946,0-0.9775,0.0178-1.4495,0.0482v2.2029
		C223.5381,95.2007,223.8818,95.6138,224.3555,95.7021z M249.9805,97.8198h-2.3848V68.3877h2.3848V97.8198z"/>
	<path d="M238.0439,89.8489c0.0002,0,0.0006,0.0002,0.001,0.0002c0.0002,0,0.0005-0.0001,0.0006-0.0001s0.0002,0.0001,0.0004,0.0001
		c0.0002,0,0.0002-0.0001,0.0005-0.0001c0.0229-0.0001,0.0459-0.0015,0.0679-0.0038c0.0222-0.0026,0.0404-0.0142,0.0618-0.019
		c0.0382-0.0087,0.0748-0.0182,0.1108-0.0343c0.0315-0.014,0.0591-0.0314,0.0872-0.0502c0.0187-0.0123,0.0403-0.0187,0.0576-0.0331
		c0.0098-0.0082,0.0137-0.0211,0.0229-0.0298c0.0405-0.0386,0.072-0.0829,0.1006-0.1313c0.0125-0.0214,0.0283-0.0396,0.0382-0.0624
		c0.0316-0.0732,0.0521-0.1517,0.0521-0.2359V77.8066c0-0.0822-0.0168-0.1602-0.0469-0.2316
		c-0.0051-0.0127-0.0162-0.022-0.0225-0.0342c-0.0287-0.0573-0.0618-0.1118-0.1064-0.1567
		c-0.0022-0.0021-0.0028-0.0051-0.0049-0.0071c-0.0325-0.032-0.0742-0.0508-0.1125-0.0751
		c-0.0227-0.0139-0.0411-0.0331-0.0657-0.0439c-0.0476-0.022-0.0988-0.0273-0.1506-0.0344
		c-0.0249-0.0039-0.0466-0.0158-0.0725-0.0165l-7.0654-0.2065c-0.1846-0.0137-0.3691,0.0786-0.4873,0.2261
		c-0.1172,0.1479-0.1582,0.3428-0.1104,0.5259l1.5452,5.8907c0.4143,0.0916,0.8303,0.176,1.2402,0.2839
		c0.0292,0.0076,0.054,0.0228,0.0828,0.0309l-1.5039-5.7349l3.1145,0.091l2.3765,10.1864l-0.5171-0.0911
		c0.0137,0.3965-0.0144,0.7969-0.1041,1.2001l1.307,0.2303C237.9758,89.8461,238.0104,89.8488,238.0439,89.8489z"/>
	<path d="M140.1503,80.6973c-2.4658,12.1796,5.4094,24.0516,17.588,26.5172c12.1807,2.466,24.0515-5.4084,26.5172-17.588
		c2.4658-12.1797-5.4073-24.0512-17.588-26.5172C154.4889,60.6436,142.6161,68.5175,140.1503,80.6973z M164.4517,81.9081
		c1.8848,0,3.4128,1.528,3.4128,3.4128c0,1.8848-1.528,3.4128-3.4128,3.4128c-1.8849,0-3.4128-1.528-3.4128-3.4128
		C161.0388,83.4361,162.5668,81.9081,164.4517,81.9081z M151.8186,78.0549c1.8849,0,3.4128,1.528,3.4128,3.4128
		c0,1.8848-1.528,3.4128-3.4128,3.4128c-1.8848,0-3.4128-1.528-3.4128-3.4128C148.4058,79.5829,149.9338,78.0549,151.8186,78.0549z"
		/>
	<path d="M170.304,193.7137c-1.8086,0-3.5957-0.4824-5.166-1.395l-44.5393-25.8716l-0.3561,1.7592l-2.9344,14.4948
		c-0.076,0.3754-0.1137,0.7489-0.134,1.1204c-0.1255,0.7066-0.2025,1.4301-0.2025,2.1729V287.213
		c0,6.8301,5.5371,12.3633,12.3633,12.3633c6.8281,0,12.3652-5.5332,12.3652-12.3633v-91.6885l4.6348,0.9383v90.7502
		c0,6.8301,5.5371,12.3633,12.3633,12.3633c6.8281,0,12.3652-5.5332,12.3652-12.3633v-91.8498v-1.7002
		C170.8105,193.6819,170.5598,193.7137,170.304,193.7137z"/>
	<path d="M231.3264,90.9862c1.3359,0.3516,2.7021-0.4453,3.0547-1.7808c0.3516-1.3354-0.4463-2.7026-1.7812-3.0542
		c-8.0918-2.1309-15.6201-0.4355-19.6094,1.6636c-0.0701,0.0369-0.1289,0.0861-0.1941,0.1285l-3.4166,1.898l-2.1637,1.202
		c-2.7412,1.5225-4.3398,4.5068-4.0898,7.6323l2.1826,27.2241l-25.8604-8.3145c-0.6395-0.2058-1.2854-0.317-1.9268-0.3594
		l-28.5488-5.7798l-8.9857-1.8192c-0.9988-0.2022-1.9901-0.1966-2.9342-0.0222c-2.7103,0.2738-6.6656,1.5247-10.959,5.7349
		c-6.5049,6.3789-12.2139,18.0903-16.9707,34.8105c-1.002,3.519,0.5127,7.269,3.6758,9.1064l53.4941,31.0732
		c1.2646,0.7349,2.6465,1.084,4.0107,1.084c2.7578-0.0005,5.4404-1.4272,6.9258-3.9834c2.2188-3.8203,0.9209-8.7163-2.8994-10.9355
		l-48.0176-27.8921c3.0112-9.2601,5.8514-14.8608,8.0822-18.2282l2.0668,1.0728c-1.954,2.8961-4.5601,7.8299-7.3765,16.1061
		l45.2109,26.2617l0.3561-1.7591l7.4523-36.8102l29.6857,9.5444c0.8018,0.2578,1.627,0.3838,2.4473,0.3838
		c1.7803,0,3.5352-0.5942,4.9678-1.7285c2.0928-1.6577,3.2207-4.25,3.0078-6.9106l-2.7266-34.0054l1.4443-0.8027
		c1.9453-1.0806,0.939-5.1637-1.0317-8.6776c-0.401-0.7151-0.8425-1.4037-1.3068-2.0416
		C221.7677,90.1424,226.3254,89.6692,231.3264,90.9862z"/>
</g>
</svg>
