<?xml version="1.0" encoding="utf-8"?>
<!-- Generator: Adobe Illustrator 17.1.0, SVG Export Plug-In . SVG Version: 6.00 Build 0)  -->
<!DOCTYPE svg PUBLIC "-//W3C//DTD SVG 1.1//EN" "http://www.w3.org/Graphics/SVG/1.1/DTD/svg11.dtd">
<svg version="1.1" xmlns="http://www.w3.org/2000/svg" xmlns:xlink="http://www.w3.org/1999/xlink" x="0px" y="0px"
	 viewBox="0 0 64 64" enable-background="new 0 0 64 64" xml:space="preserve">
<g id="guide" display="none">
</g>
<g id="fill_outline" display="none">
	<g id="lightbulb_in_hand_3_" display="inline">
		<path fill="#3EBBDD" d="M53,29.653c4.73-2.247,8-7.068,8-12.653c0-7.732-6.268-14-14-14S33,9.268,33,17
			c0,5.586,3.271,10.407,8.002,12.654V35H53L53,29.653z"/>
		<rect x="41.002" y="31" fill="#4D4D4D" width="11.998" height="4"/>
		<rect x="2.002" y="43" fill="#4D4D4D" width="19.998" height="18"/>
		<rect x="22.002" y="45" fill="#FFFFFF" width="3.998" height="14"/>
		<path d="M53,36H41.002c-0.553,0-1-0.447-1-1v-4.729C35.12,27.688,32,22.549,32,17c0-8.271,6.729-15,15-15s15,6.729,15,15
			c0,5.548-3.12,10.688-8,13.27V35C54,35.553,53.553,36,53,36z M42.002,34H52v-4.348c0-0.386,0.223-0.737,0.571-0.903
			C57.084,26.604,60,21.993,60,17c0-7.168-5.832-13-13-13S34,9.832,34,17c0,4.994,2.917,9.606,7.431,11.751
			c0.349,0.166,0.571,0.518,0.571,0.903V34z"/>
		<rect x="42" y="38" width="10" height="2"/>
		<rect x="41" y="30" width="12" height="2"/>
		<g>
			<polygon fill="#FFFFFF" points="52,15 47,15 48,8 42,19 47,19 46,26 			"/>
			<path d="M46,27c-0.104,0-0.211-0.017-0.315-0.051c-0.459-0.152-0.743-0.611-0.675-1.091L45.847,20H42
				c-0.353,0-0.68-0.187-0.86-0.489c-0.18-0.304-0.187-0.68-0.018-0.989l6-11c0.231-0.425,0.731-0.62,1.193-0.471
				c0.459,0.152,0.743,0.611,0.675,1.091L48.153,14H52c0.353,0,0.68,0.187,0.86,0.489c0.18,0.304,0.187,0.68,0.018,0.989l-6,11
				C46.699,26.808,46.357,27,46,27z M43.685,18H47c0.29,0,0.565,0.126,0.756,0.345c0.189,0.219,0.275,0.51,0.234,0.797l-0.218,1.52
				L50.315,16H47c-0.29,0-0.565-0.126-0.756-0.345c-0.189-0.219-0.275-0.51-0.234-0.797l0.218-1.52L43.685,18z"/>
		</g>
		<path d="M22,62H2v-2h19V44h-8v-2h9c0.553,0,1,0.447,1,1v18C23,61.553,22.553,62,22,62z"/>
		<rect x="9" y="42" width="2" height="2"/>
		<rect x="2" y="42" width="5" height="2"/>
		<path d="M26,60h-4c-0.553,0-1-0.447-1-1V45c0-0.553,0.447-1,1-1h4c0.553,0,1,0.447,1,1v14C27,59.553,26.553,60,26,60z M23,58h2V46
			h-2V58z"/>
		<rect x="13" y="56" width="2" height="2"/>
		<rect x="17" y="56" width="2" height="2"/>
		<path fill="#FCBB9A" d="M26,57h5l2,2h15.748l11.713-12.632C61.645,45.091,60.75,43,59.018,43h-0.549
			c-0.525,0-1.028,0.211-1.399,0.586L49.737,51h-9.91c-1.082,0-1.958-0.886-1.958-1.98v-0.04c0-1.094,0.877-1.98,1.958-1.98h5.215
			C46.123,47,47,46.114,47,45.02v-0.04c0-1.094-0.877-1.98-1.958-1.98h-10.14L31,47h-5V57z"/>
		<path d="M48.748,60H33c-0.266,0-0.52-0.105-0.707-0.293L30.586,58H26c-0.553,0-1-0.447-1-1V47c0-0.553,0.447-1,1-1h4.578
			l3.607-3.698C34.374,42.108,34.632,42,34.901,42h10.141C46.673,42,48,43.337,48,44.98c0,1.683-1.327,3.02-2.958,3.02h-5.215
			c-0.528,0-0.959,0.439-0.959,0.98c0,0.58,0.431,1.02,0.959,1.02h9.493l7.039-7.117C56.914,42.321,57.684,42,58.469,42h0.549
			c1.199,0,2.244,0.687,2.727,1.792c0.487,1.117,0.276,2.364-0.55,3.256L49.481,59.68C49.292,59.884,49.026,60,48.748,60z
			 M33.414,58h14.897l11.416-12.312c0.418-0.45,0.246-0.953,0.184-1.097C59.851,44.453,59.606,44,59.018,44h-0.549
			c-0.259,0-0.503,0.103-0.688,0.289l-7.333,7.414C50.261,51.894,50.005,52,49.737,52h-9.91c-1.632,0-2.959-1.337-2.959-2.98
			c0-1.683,1.327-3.02,2.959-3.02h5.215C45.57,46,46,45.561,46,45.02c0-0.58-0.43-1.02-0.958-1.02h-9.719l-3.607,3.698
			C31.527,47.892,31.27,48,31,48h-4v8h4c0.266,0,0.52,0.105,0.707,0.293L33.414,58z"/>
	</g>
</g>
<g id="flat" display="none">
	<g id="lightbulb_in_hand_2_" display="inline">
		<rect x="42" y="38" fill="#4D4D4D" width="10" height="2"/>
		<rect x="41" y="30" width="12" height="2"/>
		<path fill="#3EBBDD" d="M47,2c-8.271,0-15,6.729-15,15c0,5.549,3.12,10.688,8.002,13.271V35c0,0.553,0.447,1,1,1H53
			c0.553,0,1-0.447,1-1v-4.73c4.88-2.582,8-7.722,8-13.27C62,8.729,55.271,2,47,2z"/>
		<path fill="#FFFFFF" d="M52.86,14.489C52.68,14.187,52.353,14,52,14h-3.847l0.837-5.858c0.068-0.479-0.216-0.938-0.675-1.091
			c-0.462-0.149-0.962,0.046-1.193,0.471l-6,11c-0.169,0.31-0.162,0.686,0.018,0.989C41.32,19.813,41.647,20,42,20h3.847
			l-0.837,5.858c-0.068,0.479,0.216,0.938,0.675,1.091C45.789,26.983,45.896,27,46,27c0.357,0,0.699-0.192,0.878-0.521l6-11
			C53.047,15.169,53.04,14.793,52.86,14.489z"/>
		<path fill="#FCBB9A" d="M61.744,43.792C61.262,42.687,60.217,42,59.018,42h-0.549c-0.785,0-1.555,0.321-2.109,0.883L49.32,50
			h-9.493c-0.528,0-0.959-0.439-0.959-1.02c0-0.541,0.431-0.98,0.959-0.98h5.215C46.673,48,48,46.663,48,44.98
			c0-1.644-1.327-2.98-2.958-2.98H34.901c-0.27,0-0.527,0.108-0.716,0.302L30.578,46H26c-0.553,0-1,0.447-1,1v10
			c0,0.553,0.447,1,1,1h4.586l1.707,1.707C32.48,59.895,32.734,60,33,60h15.748c0.278,0,0.544-0.116,0.733-0.32l11.713-12.632
			C62.021,46.156,62.231,44.909,61.744,43.792z"/>
		<path fill="#CCCCCC" d="M26,44h-4c-0.553,0-1,0.447-1,1v14c0,0.553,0.447,1,1,1h4c0.553,0,1-0.447,1-1V45
			C27,44.447,26.553,44,26,44z"/>
		<path fill="#4D4D4D" d="M22,42H3v20h19c0.552,0,1-0.448,1-1V43C23,42.448,22.552,42,22,42z"/>
		<rect x="13" y="56" fill="#FFFFFF" width="2" height="2"/>
		<rect x="17" y="56" fill="#FFFFFF" width="2" height="2"/>
	</g>
</g>
<g id="outline__x28_Expand_x2F_Unite_x29_">
	<g id="lightbulb_in_hand_1_">
		<rect x="42" y="38" width="10" height="2"/>
		<path fill="#e6b800" d="M40.002,30.271V35c0,0.553,0.447,1,1,1H53c0.553,0,1-0.447,1-1v-4.73c4.88-2.582,8-7.722,8-13.27c0-8.271-6.729-15-15-15
			S32,8.729,32,17C32,22.549,35.12,27.688,40.002,30.271z M42.002,34v-2H52v2H42.002z M47,4c7.168,0,13,5.832,13,13
			c0,4.993-2.916,9.604-7.429,11.749C52.223,28.915,52,29.267,52,29.652V30h-9.998v-0.346c0-0.386-0.223-0.737-0.571-0.903
			C36.917,26.606,34,21.994,34,17C34,9.832,39.832,4,47,4z"/>
		<path fill="white" d="M42,20h3.847l-0.837,5.858c-0.068,0.479,0.216,0.938,0.675,1.091C45.789,26.983,45.896,27,46,27
			c0.357,0,0.699-0.192,0.878-0.521l6-11c0.169-0.31,0.162-0.686-0.018-0.989C52.68,14.187,52.353,14,52,14h-3.847l0.837-5.858
			c0.068-0.479-0.216-0.938-0.675-1.091c-0.462-0.149-0.962,0.046-1.193,0.471l-6,11c-0.169,0.31-0.162,0.686,0.018,0.989
			C41.32,19.813,41.647,20,42,20z M46.228,13.339l-0.218,1.52c-0.041,0.287,0.045,0.578,0.234,0.797C46.435,15.874,46.71,16,47,16
			h3.315l-2.543,4.661l0.218-1.52c0.041-0.287-0.045-0.578-0.234-0.797C47.565,18.126,47.29,18,47,18h-3.315L46.228,13.339z"/>
		<rect fill="#e6b800" x="9" y="42" width="2" height="2"/>
		<rect fill="#e6b800" x="2" y="42" width="5" height="2"/>
		<rect fill="#e6b800" x="13" y="56" width="2" height="2"/>
		<rect fill="#e6b800" x="17" y="56" width="2" height="2"/>
		<path fill="#e6b800" d="M61.744,43.792C61.262,42.687,60.217,42,59.018,42h-0.549c-0.785,0-1.555,0.321-2.109,0.883L49.32,50h-9.493
			c-0.528,0-0.959-0.439-0.959-1.02c0-0.541,0.431-0.98,0.959-0.98h5.215C46.673,48,48,46.663,48,44.98
			c0-1.644-1.327-2.98-2.958-2.98H34.901c-0.27,0-0.527,0.108-0.716,0.302L30.578,46H27v-1c0-0.553-0.447-1-1-1h-3v-1
			c0-0.553-0.447-1-1-1h-9v2h8v1v14v1H2v2h20c0.553,0,1-0.447,1-1v-1h3c0.553,0,1-0.447,1-1v-1h3.586l1.707,1.707
			C32.48,59.895,32.734,60,33,60h15.748c0.278,0,0.544-0.116,0.733-0.32l11.713-12.632C62.021,46.156,62.231,44.909,61.744,43.792z
			 M25,58h-2V46h2v1v10V58z M59.728,45.688L48.312,58H33.414l-1.707-1.707C31.52,56.105,31.266,56,31,56h-4v-8h4
			c0.27,0,0.527-0.108,0.716-0.302L35.323,44h9.719C45.57,44,46,44.439,46,45.02c0,0.541-0.43,0.98-0.958,0.98h-5.215
			c-1.632,0-2.959,1.337-2.959,3.02c0,1.644,1.327,2.98,2.959,2.98h9.91c0.268,0,0.523-0.106,0.711-0.297l7.333-7.414
			C57.966,44.103,58.21,44,58.469,44h0.549c0.589,0,0.833,0.453,0.894,0.592C59.974,44.735,60.146,45.238,59.728,45.688z"/>
	</g>
</g>
<g id="outline__x28_Non-Ex_x29_" display="none">
	<g id="lightbulb_in_hand" display="inline">
		<g>
			
				<line fill="none" stroke="#000000" stroke-width="2" stroke-linejoin="round" stroke-miterlimit="10" x1="52" y1="39" x2="42" y2="39"/>
			
				<line fill="none" stroke="#000000" stroke-width="2" stroke-linejoin="round" stroke-miterlimit="10" x1="53" y1="31" x2="41" y2="31"/>
			<path fill="none" stroke="#000000" stroke-width="2" stroke-linejoin="round" stroke-miterlimit="10" d="M53,29.653
				c4.73-2.247,8-7.068,8-12.653c0-7.732-6.268-14-14-14S33,9.268,33,17c0,5.586,3.271,10.407,8.002,12.654V35H53L53,29.653z"/>
			
				<polygon fill="none" stroke="#000000" stroke-width="2" stroke-linecap="round" stroke-linejoin="round" stroke-miterlimit="10" points="
				52,15 47,15 48,8 42,19 47,19 46,26 			"/>
		</g>
		<polyline fill="none" stroke="#000000" stroke-width="2" stroke-linejoin="round" stroke-miterlimit="10" points="13,43 22,43 
			22,61 2,61 		"/>
		
			<line fill="none" stroke="#000000" stroke-width="2" stroke-linejoin="round" stroke-miterlimit="10" x1="9" y1="43" x2="11" y2="43"/>
		
			<line fill="none" stroke="#000000" stroke-width="2" stroke-linejoin="round" stroke-miterlimit="10" x1="2" y1="43" x2="7" y2="43"/>
		
			<rect x="22" y="45" fill="none" stroke="#000000" stroke-width="2" stroke-linejoin="round" stroke-miterlimit="10" width="4" height="14"/>
		
			<line fill="none" stroke="#000000" stroke-width="2" stroke-linejoin="round" stroke-miterlimit="10" x1="13" y1="57" x2="15" y2="57"/>
		
			<line fill="none" stroke="#000000" stroke-width="2" stroke-linejoin="round" stroke-miterlimit="10" x1="17" y1="57" x2="19" y2="57"/>
		<path fill="none" stroke="#000000" stroke-width="2" stroke-linejoin="round" stroke-miterlimit="10" d="M26,57h5l2,2h15.748
			l11.713-12.632C61.645,45.091,60.75,43,59.018,43h-0.549c-0.525,0-1.028,0.211-1.399,0.586L49.737,51h-9.91
			c-1.082,0-1.958-0.886-1.958-1.98v-0.04c0-1.094,0.877-1.98,1.958-1.98h5.215C46.123,47,47,46.114,47,45.02v-0.04
			c0-1.094-0.877-1.98-1.958-1.98h-10.14L31,47h-5V57z"/>
	</g>
</g>
<g id="tag" display="none">
</g>
</svg>
