<?xml version="1.0" encoding="UTF-8"?>
<!DOCTYPE svg PUBLIC "-//W3C//DTD SVG 1.1//EN" "http://www.w3.org/Graphics/SVG/1.1/DTD/svg11.dtd">
<!-- Creator: CorelDRAW -->
<svg xmlns="http://www.w3.org/2000/svg" xml:space="preserve" width="512px" height="512px" version="1.1" style="shape-rendering:geometricPrecision; text-rendering:geometricPrecision; image-rendering:optimizeQuality; fill-rule:evenodd; clip-rule:evenodd"
viewBox="0 0 512 512"
 xmlns:xlink="http://www.w3.org/1999/xlink">
 <defs>
  <style type="text/css">
   <![CDATA[
    .fil0 {fill:black}
   ]]>
  </style>
 </defs>
 <g id="Layer_x0020_1">
  <metadata id="CorelCorpID_0Corel-Layer"/>
  <g id="_399664976">
   <g>
    <g>
     <path class="fil0" d="M487 460l-462 0c-14,0 -25,-12 -25,-25l0 -358c0,-14 11,-25 25,-25l462 0c14,0 25,12 25,25l0 358c0,13 -11,25 -25,25zm-462 -394c-6,0 -10,5 -10,10l0 359c0,5 4,10 10,10l462 0c6,0 10,-5 10,-10l0 -359c0,-5 -4,-10 -10,-10l-462 0z"/>
    </g>
    <g>
     <g>
      <path class="fil0" d="M307 336l-216 0c-9,0 -17,-8 -17,-18l0 -207c0,-10 8,-17 17,-17l216 0c10,0 18,7 18,17l0 207c0,10 -8,18 -18,18zm-216 -228c-1,0 -2,1 -2,3l0 207c0,2 1,3 2,3l216 0c2,0 3,-1 3,-3l0 -207c0,-2 -1,-3 -3,-3l-216 0z"/>
     </g>
     <g>
      <g>
       <path class="fil0" d="M136 418l-54 0c-4,0 -7,-3 -7,-7l0 -45c0,-5 3,-8 7,-8l54 0c4,0 8,3 8,8l0 45c-1,4 -4,7 -8,7zm-47 -15l40 0 0 -30 -40 0 0 30z"/>
      </g>
      <g>
       <path class="fil0" d="M226 418l-54 0c-4,0 -7,-3 -7,-7l0 -45c0,-5 3,-8 7,-8l54 0c4,0 8,3 8,8l0 45c0,4 -4,7 -8,7zm-46 -15l39 0 0 -30 -39 0 0 30z"/>
      </g>
      <g>
       <path class="fil0" d="M317 418l-55 0c-4,0 -7,-3 -7,-7l0 -45c0,-5 3,-8 7,-8l55 0c4,0 7,3 7,8l0 45c0,4 -3,7 -7,7zm-47 -15l40 0 0 -30 -40 0 0 30z"/>
      </g>
     </g>
     <g>
      <g>
       <path class="fil0" d="M430 172l-66 0c-2,0 -5,-1 -6,-4 -1,-2 -1,-5 0,-7l33 -60c1,-3 4,-4 6,-4 0,0 0,0 0,0 3,0 5,2 7,4l33 60c1,2 1,5 0,7 -2,2 -4,4 -7,4zm-53 -15l41 0 -21 -38 -20 38z"/>
      </g>
      <g>
       <path class="fil0" d="M397 333c-2,0 -5,-2 -6,-4l-33 -61c-1,-2 -1,-5 0,-7 1,-2 4,-3 6,-3l66 0c3,0 5,1 7,3 1,3 1,5 0,7l-33 61c-1,2 -4,4 -7,4 0,0 0,0 0,0zm-20 -61l20 38 21 -38 -41 0z"/>
      </g>
     </g>
     <g>
      <path class="fil0" d="M420 246l-45 0c-5,0 -9,-5 -9,-10l0 -42c0,-6 4,-10 9,-10l45 0c5,0 9,4 9,10l0 42c0,5 -4,10 -9,10zm-40 -15l34 0 0 -32 -34 0 0 32zm40 -32l0 0 0 0z"/>
     </g>
     <g>
      <g>
       <path class="fil0" d="M155 288c0,0 -1,0 -2,-1 -3,-1 -6,-5 -5,-9l23 -84 -36 0 0 10c0,4 -4,7 -8,7 -4,0 -7,-3 -7,-7l0 -17c0,-4 3,-7 7,-7l53 -1c2,0 4,1 5,3 2,2 2,4 2,7l-25 93c0,3 -3,6 -7,6z"/>
      </g>
      <g>
       <path class="fil0" d="M237 288c-5,0 -8,-4 -8,-8l0 -81 -5 3c-3,2 -8,1 -10,-3 -2,-3 -1,-8 3,-10l16 -9c2,-1 5,-1 7,0 2,1 4,4 4,6l0 94c0,4 -3,8 -7,8z"/>
      </g>
      <g>
       <path class="fil0" d="M258 288l-43 0c-4,0 -7,-4 -7,-8 0,-4 3,-7 7,-7l43 0c4,0 8,3 8,7 -1,4 -4,8 -8,8z"/>
      </g>
     </g>
     <g>
      <path class="fil0" d="M261 183c-12,0 -22,-10 -22,-23 0,-12 10,-22 22,-22 13,0 22,10 22,22 0,13 -9,23 -22,23zm0 -31c-4,0 -8,4 -8,8 0,4 4,8 8,8 4,0 8,-3 8,-8 0,-4 -3,-8 -8,-8z"/>
     </g>
    </g>
   </g>
  </g>
 </g>
</svg>
