<?xml version="1.0" encoding="UTF-8"?>
<!DOCTYPE svg PUBLIC "-//W3C//DTD SVG 1.1//EN" "http://www.w3.org/Graphics/SVG/1.1/DTD/svg11.dtd">
<!-- Creator: CorelDRAW -->
<svg xmlns="http://www.w3.org/2000/svg" xml:space="preserve" width="1.70666in" height="1.70666in" version="1.1" style="shape-rendering:geometricPrecision; text-rendering:geometricPrecision; image-rendering:optimizeQuality; fill-rule:evenodd; clip-rule:evenodd"
viewBox="0 0 1707 1707"
 xmlns:xlink="http://www.w3.org/1999/xlink">
 <defs>
  <style type="text/css">
   <![CDATA[
    .fil0 {fill:black}
   ]]>
  </style>
 </defs>
 <g id="Layer_x0020_1">
  <metadata id="CorelCorpID_0Corel-Layer"/>
  <path class="fil0" d="M859 1390c-7,0 -14,-2 -19,-7l-272 -272c-10,-10 -10,-26 0,-37l73 -72c14,-14 33,-22 53,-22 20,0 39,8 53,22l202 202c14,14 22,33 22,53 0,20 -8,39 -22,54l-72 72c-5,5 -12,7 -18,7z"/>
  <path class="fil0" d="M760 978l17 -17c19,-19 45,-30 72,-30 27,0 53,11 72,30l69 69c19,20 30,45 30,72 0,28 -11,53 -30,72l-17 17c-1,-2 -3,-4 -5,-6l-202 -202c-2,-2 -4,-3 -6,-5z"/>
  <path class="fil0" d="M984 994c-7,0 -14,-3 -19,-8 -10,-10 -10,-26 0,-37l35 -34c10,-10 26,-10 37,0 10,10 10,26 0,36l-35 35c-5,5 -12,8 -18,8z"/>
  <path class="fil0" d="M1060 1071c-11,0 -22,-8 -25,-19 -4,-14 4,-28 18,-32l48 -13c14,-3 28,5 31,19 4,13 -4,28 -18,31l-47 13c-3,1 -5,1 -7,1z"/>
  <path class="fil0" d="M906 917c-2,0 -4,0 -6,-1 -14,-3 -22,-18 -19,-31l13 -48c4,-14 18,-22 32,-18 14,4 22,18 18,32l-13 47c-3,12 -13,19 -25,19z"/>
  <path class="fil0" d="M445 1706c-20,0 -39,-7 -53,-22l-125 -125c-30,-29 -30,-77 0,-106l303 -303 231 232 -302 302c-15,15 -33,22 -54,22zm-30 -157c3,0 6,-1 9,-4l216 -216c5,-5 5,-13 0,-18 -5,-5 -13,-5 -17,0l-217 217c-5,4 -5,12 0,17 2,3 5,4 9,4z"/>
  <path class="fil0" d="M909 643c0,0 0,0 0,0 -27,0 -52,-15 -65,-38l-143 -247c-10,-18 -13,-38 -8,-57 6,-20 18,-36 35,-46l89 -51c6,-4 13,-5 20,-3 6,2 12,6 15,12l192 333c8,12 3,28 -9,35l-88 52c-12,6 -25,10 -38,10z"/>
  <path class="fil0" d="M754 651c-37,0 -71,-20 -89,-51l-49 -85c-13,-24 -17,-51 -10,-77 7,-27 24,-49 47,-62l21 -12c1,2 2,5 4,7l142 247c2,3 3,5 5,7l-21 12c-15,9 -33,14 -50,14z"/>
  <path class="fil0" d="M564 627c-9,0 -18,-4 -22,-12 -8,-13 -3,-29 9,-36l43 -24c12,-8 28,-3 35,9 7,12 3,28 -10,35l-42 25c-4,2 -9,3 -13,3z"/>
  <path class="fil0" d="M637 739c-5,0 -9,-1 -13,-3 -13,-7 -17,-23 -10,-36l25 -42c7,-12 23,-17 35,-10 13,8 17,23 10,36l-25 42c-5,9 -13,13 -22,13z"/>
  <path class="fil0" d="M553 509l-49 0c-15,0 -26,-12 -26,-26 0,-15 11,-26 26,-26l49 0c14,0 25,11 25,26 0,14 -11,26 -25,26z"/>
  <path class="fil0" d="M889 224l371 -214c12,-6 25,-10 38,-10 27,0 52,15 65,38l89 153c10,18 13,38 7,57 -5,20 -17,36 -35,46l-371 214 -164 -284zm154 119c2,0 4,0 6,-1l266 -153c6,-4 8,-12 4,-18 -3,-6 -11,-8 -17,-4l-265 153c-6,3 -8,11 -5,17 3,4 7,6 11,6z"/>
 </g>
</svg>
